<svg xmlns="http://www.w3.org/2000/svg" viewBox="0 0 720 405" width="720" height="405">
  <defs>
    <!-- Glow filter for connections -->
    <filter id="glow" x="-20%" y="-20%" width="140%" height="140%">
      <feGaussianBlur stdDeviation="2" result="blur"/>
      <feComposite in="SourceGraphic" in2="blur" operator="over"/>
    </filter>
    <!-- Strong glow for active connections -->
    <filter id="glowStrong" x="-40%" y="-40%" width="180%" height="180%">
      <feGaussianBlur stdDeviation="4" result="blur"/>
      <feMerge>
        <feMergeNode in="blur"/>
        <feMergeNode in="SourceGraphic"/>
      </feMerge>
    </filter>
    <!-- Core gradient -->
    <radialGradient id="coreActive" cx="50%" cy="50%" r="50%">
      <stop offset="0%" stop-color="#79c0ff"/>
      <stop offset="60%" stop-color="#58a6ff"/>
      <stop offset="100%" stop-color="#1f6feb"/>
    </radialGradient>
    <radialGradient id="coreDim" cx="50%" cy="50%" r="50%">
      <stop offset="0%" stop-color="#30475e"/>
      <stop offset="100%" stop-color="#1c2a3a"/>
    </radialGradient>
    <radialGradient id="coreGreen" cx="50%" cy="50%" r="50%">
      <stop offset="0%" stop-color="#56d364"/>
      <stop offset="60%" stop-color="#3fb950"/>
      <stop offset="100%" stop-color="#238636"/>
    </radialGradient>
    <radialGradient id="coreSeal" cx="50%" cy="50%" r="50%">
      <stop offset="0%" stop-color="#ffd700"/>
      <stop offset="60%" stop-color="#e6a817"/>
      <stop offset="100%" stop-color="#b8860b"/>
    </radialGradient>
    <!-- Background gradient -->
    <radialGradient id="bgGrad" cx="50%" cy="50%" r="55%">
      <stop offset="0%" stop-color="#131a24"/>
      <stop offset="100%" stop-color="#0d1117"/>
    </radialGradient>
    <!-- Chip border gradient -->
    <linearGradient id="chipBorder" x1="0%" y1="0%" x2="100%" y2="100%">
      <stop offset="0%" stop-color="#30363d"/>
      <stop offset="50%" stop-color="#484f58"/>
      <stop offset="100%" stop-color="#30363d"/>
    </linearGradient>
  </defs>

  <!-- Background -->
  <rect width="720" height="405" fill="url(#bgGrad)"/>

  <!-- Chip outline -->
  <rect x="60" y="32" width="600" height="341" rx="8" fill="none" stroke="url(#chipBorder)" stroke-width="1.5" opacity="0.6"/>
  <!-- Chip inner subtle border -->
  <rect x="68" y="40" width="584" height="325" rx="4" fill="none" stroke="#21262d" stroke-width="0.5"/>

  <!-- Pin markers on edges -->
  <g stroke="#30363d" stroke-width="1" opacity="0.4">
    <!-- Top pins -->
    <line x1="120" y1="28" x2="120" y2="36"/><line x1="160" y1="28" x2="160" y2="36"/>
    <line x1="200" y1="28" x2="200" y2="36"/><line x1="240" y1="28" x2="240" y2="36"/>
    <line x1="280" y1="28" x2="280" y2="36"/><line x1="320" y1="28" x2="320" y2="36"/>
    <line x1="360" y1="28" x2="360" y2="36"/><line x1="400" y1="28" x2="400" y2="36"/>
    <line x1="440" y1="28" x2="440" y2="36"/><line x1="480" y1="28" x2="480" y2="36"/>
    <line x1="520" y1="28" x2="520" y2="36"/><line x1="560" y1="28" x2="560" y2="36"/>
    <line x1="600" y1="28" x2="600" y2="36"/>
    <!-- Bottom pins -->
    <line x1="120" y1="369" x2="120" y2="377"/><line x1="160" y1="369" x2="160" y2="377"/>
    <line x1="200" y1="369" x2="200" y2="377"/><line x1="240" y1="369" x2="240" y2="377"/>
    <line x1="280" y1="369" x2="280" y2="377"/><line x1="320" y1="369" x2="320" y2="377"/>
    <line x1="360" y1="369" x2="360" y2="377"/><line x1="400" y1="369" x2="400" y2="377"/>
    <line x1="440" y1="369" x2="440" y2="377"/><line x1="480" y1="369" x2="480" y2="377"/>
    <line x1="520" y1="369" x2="520" y2="377"/><line x1="560" y1="369" x2="560" y2="377"/>
    <line x1="600" y1="369" x2="600" y2="377"/>
    <!-- Left pins -->
    <line x1="56" y1="80" x2="64" y2="80"/><line x1="56" y1="120" x2="64" y2="120"/>
    <line x1="56" y1="160" x2="64" y2="160"/><line x1="56" y1="200" x2="64" y2="200"/>
    <line x1="56" y1="240" x2="64" y2="240"/><line x1="56" y1="280" x2="64" y2="280"/>
    <line x1="56" y1="320" x2="64" y2="320"/>
    <!-- Right pins -->
    <line x1="656" y1="80" x2="664" y2="80"/><line x1="656" y1="120" x2="664" y2="120"/>
    <line x1="656" y1="160" x2="664" y2="160"/><line x1="656" y1="200" x2="664" y2="200"/>
    <line x1="656" y1="240" x2="664" y2="240"/><line x1="656" y1="280" x2="664" y2="280"/>
    <line x1="656" y1="320" x2="664" y2="320"/>
  </g>

  <!-- Grid connections - horizontal (dim) -->
  <g stroke="#1f3350" stroke-width="0.6" opacity="0.5">
    <!-- Row by row, 16 columns, 10 rows -->
    <!-- Generate horizontal lines for a 16x10 grid -->
    <!-- Grid starts at x=100, y=60, spacing=34x30 -->
    <!-- Row 0 --><line x1="100" y1="68" x2="134" y2="68"/><line x1="134" y1="68" x2="168" y2="68"/><line x1="168" y1="68" x2="202" y2="68"/><line x1="202" y1="68" x2="236" y2="68"/><line x1="236" y1="68" x2="270" y2="68"/><line x1="270" y1="68" x2="304" y2="68"/><line x1="304" y1="68" x2="338" y2="68"/><line x1="338" y1="68" x2="372" y2="68"/><line x1="372" y1="68" x2="406" y2="68"/><line x1="406" y1="68" x2="440" y2="68"/><line x1="440" y1="68" x2="474" y2="68"/><line x1="474" y1="68" x2="508" y2="68"/><line x1="508" y1="68" x2="542" y2="68"/><line x1="542" y1="68" x2="576" y2="68"/><line x1="576" y1="68" x2="610" y2="68"/>
    <!-- Row 1 --><line x1="100" y1="98" x2="610" y2="98"/>
    <!-- Row 2 --><line x1="100" y1="128" x2="610" y2="128"/>
    <!-- Row 3 --><line x1="100" y1="158" x2="610" y2="158"/>
    <!-- Row 4 --><line x1="100" y1="188" x2="610" y2="188"/>
    <!-- Row 5 --><line x1="100" y1="218" x2="610" y2="218"/>
    <!-- Row 6 --><line x1="100" y1="248" x2="610" y2="248"/>
    <!-- Row 7 --><line x1="100" y1="278" x2="610" y2="278"/>
    <!-- Row 8 --><line x1="100" y1="308" x2="610" y2="308"/>
    <!-- Row 9 --><line x1="100" y1="338" x2="610" y2="338"/>
  </g>

  <!-- Grid connections - vertical (dim) -->
  <g stroke="#1f3350" stroke-width="0.6" opacity="0.5">
    <line x1="100" y1="68" x2="100" y2="338"/><line x1="134" y1="68" x2="134" y2="338"/>
    <line x1="168" y1="68" x2="168" y2="338"/><line x1="202" y1="68" x2="202" y2="338"/>
    <line x1="236" y1="68" x2="236" y2="338"/><line x1="270" y1="68" x2="270" y2="338"/>
    <line x1="304" y1="68" x2="304" y2="338"/><line x1="338" y1="68" x2="338" y2="338"/>
    <line x1="372" y1="68" x2="372" y2="338"/><line x1="406" y1="68" x2="406" y2="338"/>
    <line x1="440" y1="68" x2="440" y2="338"/><line x1="474" y1="68" x2="474" y2="338"/>
    <line x1="508" y1="68" x2="508" y2="338"/><line x1="542" y1="68" x2="542" y2="338"/>
    <line x1="576" y1="68" x2="576" y2="338"/><line x1="610" y1="68" x2="610" y2="338"/>
  </g>

  <!-- Active/glowing connections - some highlighted paths showing message routing -->
  <g filter="url(#glowStrong)">
    <!-- Path 1: top-left cluster to center -->
    <line x1="134" y1="98" x2="168" y2="98" stroke="#58a6ff" stroke-width="1.8" opacity="0.9"/>
    <line x1="168" y1="98" x2="202" y2="98" stroke="#58a6ff" stroke-width="1.8" opacity="0.85"/>
    <line x1="202" y1="98" x2="236" y2="98" stroke="#58a6ff" stroke-width="1.6" opacity="0.8"/>
    <line x1="236" y1="98" x2="270" y2="98" stroke="#58a6ff" stroke-width="1.4" opacity="0.7"/>
    <line x1="270" y1="98" x2="270" y2="128" stroke="#58a6ff" stroke-width="1.4" opacity="0.65"/>
    <line x1="270" y1="128" x2="270" y2="158" stroke="#58a6ff" stroke-width="1.2" opacity="0.6"/>
    <line x1="270" y1="158" x2="304" y2="158" stroke="#58a6ff" stroke-width="1.2" opacity="0.55"/>
    <line x1="304" y1="158" x2="338" y2="158" stroke="#58a6ff" stroke-width="1.0" opacity="0.5"/>

    <!-- Path 2: bottom-right to center (green) -->
    <line x1="542" y1="308" x2="508" y2="308" stroke="#3fb950" stroke-width="1.8" opacity="0.9"/>
    <line x1="508" y1="308" x2="474" y2="308" stroke="#3fb950" stroke-width="1.6" opacity="0.8"/>
    <line x1="474" y1="308" x2="440" y2="308" stroke="#3fb950" stroke-width="1.4" opacity="0.7"/>
    <line x1="440" y1="308" x2="440" y2="278" stroke="#3fb950" stroke-width="1.4" opacity="0.65"/>
    <line x1="440" y1="278" x2="406" y2="278" stroke="#3fb950" stroke-width="1.2" opacity="0.6"/>
    <line x1="406" y1="278" x2="372" y2="278" stroke="#3fb950" stroke-width="1.0" opacity="0.5"/>

    <!-- Path 3: left-middle going right -->
    <line x1="100" y1="218" x2="134" y2="218" stroke="#58a6ff" stroke-width="1.5" opacity="0.7"/>
    <line x1="134" y1="218" x2="168" y2="218" stroke="#58a6ff" stroke-width="1.3" opacity="0.6"/>
    <line x1="168" y1="218" x2="168" y2="188" stroke="#58a6ff" stroke-width="1.3" opacity="0.55"/>
    <line x1="168" y1="188" x2="202" y2="188" stroke="#58a6ff" stroke-width="1.1" opacity="0.5"/>

    <!-- Path 4: right side downward -->
    <line x1="576" y1="128" x2="576" y2="158" stroke="#3fb950" stroke-width="1.5" opacity="0.75"/>
    <line x1="576" y1="158" x2="576" y2="188" stroke="#3fb950" stroke-width="1.3" opacity="0.65"/>
    <line x1="576" y1="188" x2="542" y2="188" stroke="#3fb950" stroke-width="1.1" opacity="0.55"/>
  </g>

  <!-- Animated pulse dots on active paths -->
  <g>
    <circle r="2.5" fill="#79c0ff" opacity="0.9" filter="url(#glowStrong)">
      <animateMotion dur="3s" repeatCount="indefinite" path="M134,98 L168,98 L202,98 L236,98 L270,98 L270,128 L270,158 L304,158 L338,158"/>
    </circle>
    <circle r="2.5" fill="#56d364" opacity="0.9" filter="url(#glowStrong)">
      <animateMotion dur="3.5s" repeatCount="indefinite" path="M542,308 L508,308 L474,308 L440,308 L440,278 L406,278 L372,278"/>
    </circle>
    <circle r="2" fill="#79c0ff" opacity="0.8" filter="url(#glowStrong)">
      <animateMotion dur="2.5s" repeatCount="indefinite" path="M100,218 L134,218 L168,218 L168,188 L202,188"/>
    </circle>
    <circle r="2" fill="#56d364" opacity="0.8" filter="url(#glowStrong)">
      <animateMotion dur="2s" repeatCount="indefinite" path="M576,128 L576,158 L576,188 L542,188"/>
    </circle>
  </g>

  <!-- Core nodes - 16x10 grid -->
  <!-- Dim cores (majority) -->
  <g>
    <!-- Row 0 -->
    <circle cx="100" cy="68" r="3.5" fill="url(#coreDim)"/><circle cx="134" cy="68" r="3.5" fill="url(#coreDim)"/>
    <circle cx="168" cy="68" r="3.5" fill="url(#coreDim)"/><circle cx="202" cy="68" r="3.5" fill="url(#coreDim)"/>
    <circle cx="236" cy="68" r="3.5" fill="url(#coreDim)"/><circle cx="270" cy="68" r="3.5" fill="url(#coreDim)"/>
    <circle cx="304" cy="68" r="3.5" fill="url(#coreDim)"/><circle cx="338" cy="68" r="3.5" fill="url(#coreDim)"/>
    <circle cx="372" cy="68" r="3.5" fill="url(#coreDim)"/><circle cx="406" cy="68" r="3.5" fill="url(#coreDim)"/>
    <circle cx="440" cy="68" r="3.5" fill="url(#coreDim)"/><circle cx="474" cy="68" r="3.5" fill="url(#coreDim)"/>
    <circle cx="508" cy="68" r="3.5" fill="url(#coreDim)"/><circle cx="542" cy="68" r="3.5" fill="url(#coreDim)"/>
    <circle cx="576" cy="68" r="3.5" fill="url(#coreDim)"/><circle cx="610" cy="68" r="3.5" fill="url(#coreDim)"/>
    <!-- Row 1 -->
    <circle cx="100" cy="98" r="3.5" fill="url(#coreDim)"/><circle cx="202" cy="98" r="3.5" fill="url(#coreDim)"/>
    <circle cx="236" cy="98" r="3.5" fill="url(#coreDim)"/><circle cx="304" cy="98" r="3.5" fill="url(#coreDim)"/>
    <circle cx="338" cy="98" r="3.5" fill="url(#coreDim)"/><circle cx="372" cy="98" r="3.5" fill="url(#coreDim)"/>
    <circle cx="406" cy="98" r="3.5" fill="url(#coreDim)"/><circle cx="440" cy="98" r="3.5" fill="url(#coreDim)"/>
    <circle cx="474" cy="98" r="3.5" fill="url(#coreDim)"/><circle cx="508" cy="98" r="3.5" fill="url(#coreDim)"/>
    <circle cx="542" cy="98" r="3.5" fill="url(#coreDim)"/><circle cx="610" cy="98" r="3.5" fill="url(#coreDim)"/>
    <!-- Row 2 -->
    <circle cx="100" cy="128" r="3.5" fill="url(#coreDim)"/><circle cx="134" cy="128" r="3.5" fill="url(#coreDim)"/>
    <circle cx="168" cy="128" r="3.5" fill="url(#coreDim)"/><circle cx="202" cy="128" r="3.5" fill="url(#coreDim)"/>
    <circle cx="236" cy="128" r="3.5" fill="url(#coreDim)"/><circle cx="304" cy="128" r="3.5" fill="url(#coreDim)"/>
    <circle cx="338" cy="128" r="3.5" fill="url(#coreDim)"/><circle cx="372" cy="128" r="3.5" fill="url(#coreDim)"/>
    <circle cx="406" cy="128" r="3.5" fill="url(#coreDim)"/><circle cx="440" cy="128" r="3.5" fill="url(#coreDim)"/>
    <circle cx="474" cy="128" r="3.5" fill="url(#coreDim)"/><circle cx="508" cy="128" r="3.5" fill="url(#coreDim)"/>
    <circle cx="542" cy="128" r="3.5" fill="url(#coreDim)"/><circle cx="610" cy="128" r="3.5" fill="url(#coreDim)"/>
    <!-- Row 3 -->
    <circle cx="100" cy="158" r="3.5" fill="url(#coreDim)"/><circle cx="134" cy="158" r="3.5" fill="url(#coreDim)"/>
    <circle cx="168" cy="158" r="3.5" fill="url(#coreDim)"/><circle cx="202" cy="158" r="3.5" fill="url(#coreDim)"/>
    <circle cx="236" cy="158" r="3.5" fill="url(#coreDim)"/>
    <circle cx="372" cy="158" r="3.5" fill="url(#coreDim)"/>
    <circle cx="406" cy="158" r="3.5" fill="url(#coreDim)"/><circle cx="440" cy="158" r="3.5" fill="url(#coreDim)"/>
    <circle cx="474" cy="158" r="3.5" fill="url(#coreDim)"/><circle cx="508" cy="158" r="3.5" fill="url(#coreDim)"/>
    <circle cx="542" cy="158" r="3.5" fill="url(#coreDim)"/><circle cx="610" cy="158" r="3.5" fill="url(#coreDim)"/>
    <!-- Row 4 -->
    <circle cx="100" cy="188" r="3.5" fill="url(#coreDim)"/><circle cx="134" cy="188" r="3.5" fill="url(#coreDim)"/>
    <circle cx="236" cy="188" r="3.5" fill="url(#coreDim)"/><circle cx="270" cy="188" r="3.5" fill="url(#coreDim)"/>
    <circle cx="304" cy="188" r="3.5" fill="url(#coreDim)"/>
    <circle cx="406" cy="188" r="3.5" fill="url(#coreDim)"/><circle cx="440" cy="188" r="3.5" fill="url(#coreDim)"/>
    <circle cx="474" cy="188" r="3.5" fill="url(#coreDim)"/><circle cx="508" cy="188" r="3.5" fill="url(#coreDim)"/>
    <circle cx="610" cy="188" r="3.5" fill="url(#coreDim)"/>
    <!-- Row 5 -->
    <circle cx="134" cy="218" r="3.5" fill="url(#coreDim)"/>
    <circle cx="202" cy="218" r="3.5" fill="url(#coreDim)"/><circle cx="236" cy="218" r="3.5" fill="url(#coreDim)"/>
    <circle cx="270" cy="218" r="3.5" fill="url(#coreDim)"/><circle cx="304" cy="218" r="3.5" fill="url(#coreDim)"/>
    <circle cx="372" cy="218" r="3.5" fill="url(#coreDim)"/>
    <circle cx="406" cy="218" r="3.5" fill="url(#coreDim)"/><circle cx="440" cy="218" r="3.5" fill="url(#coreDim)"/>
    <circle cx="474" cy="218" r="3.5" fill="url(#coreDim)"/><circle cx="508" cy="218" r="3.5" fill="url(#coreDim)"/>
    <circle cx="542" cy="218" r="3.5" fill="url(#coreDim)"/><circle cx="576" cy="218" r="3.5" fill="url(#coreDim)"/>
    <circle cx="610" cy="218" r="3.5" fill="url(#coreDim)"/>
    <!-- Row 6 -->
    <circle cx="100" cy="248" r="3.5" fill="url(#coreDim)"/><circle cx="134" cy="248" r="3.5" fill="url(#coreDim)"/>
    <circle cx="168" cy="248" r="3.5" fill="url(#coreDim)"/><circle cx="202" cy="248" r="3.5" fill="url(#coreDim)"/>
    <circle cx="236" cy="248" r="3.5" fill="url(#coreDim)"/><circle cx="270" cy="248" r="3.5" fill="url(#coreDim)"/>
    <circle cx="304" cy="248" r="3.5" fill="url(#coreDim)"/><circle cx="338" cy="248" r="3.5" fill="url(#coreDim)"/>
    <circle cx="372" cy="248" r="3.5" fill="url(#coreDim)"/><circle cx="406" cy="248" r="3.5" fill="url(#coreDim)"/>
    <circle cx="440" cy="248" r="3.5" fill="url(#coreDim)"/><circle cx="474" cy="248" r="3.5" fill="url(#coreDim)"/>
    <circle cx="508" cy="248" r="3.5" fill="url(#coreDim)"/><circle cx="542" cy="248" r="3.5" fill="url(#coreDim)"/>
    <circle cx="576" cy="248" r="3.5" fill="url(#coreDim)"/><circle cx="610" cy="248" r="3.5" fill="url(#coreDim)"/>
    <!-- Row 7 -->
    <circle cx="100" cy="278" r="3.5" fill="url(#coreDim)"/><circle cx="134" cy="278" r="3.5" fill="url(#coreDim)"/>
    <circle cx="168" cy="278" r="3.5" fill="url(#coreDim)"/><circle cx="202" cy="278" r="3.5" fill="url(#coreDim)"/>
    <circle cx="236" cy="278" r="3.5" fill="url(#coreDim)"/><circle cx="270" cy="278" r="3.5" fill="url(#coreDim)"/>
    <circle cx="304" cy="278" r="3.5" fill="url(#coreDim)"/><circle cx="338" cy="278" r="3.5" fill="url(#coreDim)"/>
    <circle cx="440" cy="278" r="3.5" fill="url(#coreDim)"/>
    <circle cx="474" cy="278" r="3.5" fill="url(#coreDim)"/><circle cx="508" cy="278" r="3.5" fill="url(#coreDim)"/>
    <circle cx="542" cy="278" r="3.5" fill="url(#coreDim)"/><circle cx="576" cy="278" r="3.5" fill="url(#coreDim)"/>
    <circle cx="610" cy="278" r="3.5" fill="url(#coreDim)"/>
    <!-- Row 8 -->
    <circle cx="100" cy="308" r="3.5" fill="url(#coreDim)"/><circle cx="134" cy="308" r="3.5" fill="url(#coreDim)"/>
    <circle cx="168" cy="308" r="3.5" fill="url(#coreDim)"/><circle cx="202" cy="308" r="3.5" fill="url(#coreDim)"/>
    <circle cx="236" cy="308" r="3.5" fill="url(#coreDim)"/><circle cx="270" cy="308" r="3.5" fill="url(#coreDim)"/>
    <circle cx="304" cy="308" r="3.5" fill="url(#coreDim)"/><circle cx="338" cy="308" r="3.5" fill="url(#coreDim)"/>
    <circle cx="372" cy="308" r="3.5" fill="url(#coreDim)"/><circle cx="406" cy="308" r="3.5" fill="url(#coreDim)"/>
    <circle cx="576" cy="308" r="3.5" fill="url(#coreDim)"/><circle cx="610" cy="308" r="3.5" fill="url(#coreDim)"/>
    <!-- Row 9 -->
    <circle cx="100" cy="338" r="3.5" fill="url(#coreDim)"/><circle cx="134" cy="338" r="3.5" fill="url(#coreDim)"/>
    <circle cx="168" cy="338" r="3.5" fill="url(#coreDim)"/><circle cx="202" cy="338" r="3.5" fill="url(#coreDim)"/>
    <circle cx="236" cy="338" r="3.5" fill="url(#coreDim)"/><circle cx="270" cy="338" r="3.5" fill="url(#coreDim)"/>
    <circle cx="304" cy="338" r="3.5" fill="url(#coreDim)"/><circle cx="338" cy="338" r="3.5" fill="url(#coreDim)"/>
    <circle cx="372" cy="338" r="3.5" fill="url(#coreDim)"/><circle cx="406" cy="338" r="3.5" fill="url(#coreDim)"/>
    <circle cx="440" cy="338" r="3.5" fill="url(#coreDim)"/><circle cx="474" cy="338" r="3.5" fill="url(#coreDim)"/>
    <circle cx="508" cy="338" r="3.5" fill="url(#coreDim)"/><circle cx="542" cy="338" r="3.5" fill="url(#coreDim)"/>
    <circle cx="576" cy="338" r="3.5" fill="url(#coreDim)"/><circle cx="610" cy="338" r="3.5" fill="url(#coreDim)"/>
  </g>

  <!-- Active cores (on message paths) - blue -->
  <g filter="url(#glow)">
    <circle cx="134" cy="98" r="4.5" fill="url(#coreActive)"/>
    <circle cx="168" cy="98" r="4" fill="url(#coreActive)" opacity="0.9"/>
    <circle cx="270" cy="98" r="4" fill="url(#coreActive)" opacity="0.85"/>
    <circle cx="270" cy="128" r="3.5" fill="url(#coreActive)" opacity="0.75"/>
    <circle cx="270" cy="158" r="3.5" fill="url(#coreActive)" opacity="0.7"/>
    <circle cx="304" cy="158" r="3.5" fill="url(#coreActive)" opacity="0.65"/>
    <circle cx="100" cy="218" r="4" fill="url(#coreActive)" opacity="0.8"/>
    <circle cx="168" cy="218" r="3.5" fill="url(#coreActive)" opacity="0.7"/>
    <circle cx="168" cy="188" r="3.5" fill="url(#coreActive)" opacity="0.65"/>
    <circle cx="202" cy="188" r="3.5" fill="url(#coreActive)" opacity="0.6"/>
    <circle cx="576" cy="98" r="3.5" fill="url(#coreActive)" opacity="0.6"/>
  </g>

  <!-- Active cores - green -->
  <g filter="url(#glow)">
    <circle cx="542" cy="308" r="4.5" fill="url(#coreGreen)"/>
    <circle cx="508" cy="308" r="4" fill="url(#coreGreen)" opacity="0.9"/>
    <circle cx="474" cy="308" r="3.5" fill="url(#coreGreen)" opacity="0.8"/>
    <circle cx="440" cy="308" r="3.5" fill="url(#coreGreen)" opacity="0.7"/>
    <circle cx="406" cy="278" r="3.5" fill="url(#coreGreen)" opacity="0.65"/>
    <circle cx="372" cy="278" r="3.5" fill="url(#coreGreen)" opacity="0.6"/>
    <circle cx="576" cy="128" r="4" fill="url(#coreGreen)" opacity="0.8"/>
    <circle cx="576" cy="158" r="3.5" fill="url(#coreGreen)" opacity="0.7"/>
    <circle cx="576" cy="188" r="3.5" fill="url(#coreGreen)" opacity="0.65"/>
    <circle cx="542" cy="188" r="3.5" fill="url(#coreGreen)" opacity="0.6"/>
  </g>

  <!-- Seal Core in the center - golden, larger -->
  <g filter="url(#glowStrong)">
    <circle cx="338" cy="188" r="7" fill="url(#coreSeal)" opacity="0.95"/>
    <circle cx="338" cy="188" r="10" fill="none" stroke="#ffd700" stroke-width="0.5" opacity="0.4"/>
    <circle cx="338" cy="188" r="13" fill="none" stroke="#ffd700" stroke-width="0.3" opacity="0.2"/>
  </g>

  <!-- Region boundaries (subtle dashed) -->
  <g stroke="#30363d" stroke-width="0.5" stroke-dasharray="4,4" fill="none" opacity="0.3">
    <rect x="82" y="52" width="256" height="152" rx="3"/>
    <rect x="82" y="204" width="256" height="152" rx="3"/>
    <rect x="382" y="52" width="256" height="152" rx="3"/>
    <rect x="382" y="204" width="256" height="152" rx="3"/>
  </g>

  <!-- Crossbar hubs at region boundaries (L1/L2) -->
  <g filter="url(#glow)">
    <rect x="333" y="123" width="10" height="10" rx="2" fill="#1f6feb" opacity="0.5"/>
    <rect x="333" y="273" width="10" height="10" rx="2" fill="#1f6feb" opacity="0.5"/>
    <rect x="205" y="198" width="10" height="10" rx="2" fill="#1f6feb" opacity="0.4"/>
    <rect x="495" y="198" width="10" height="10" rx="2" fill="#1f6feb" opacity="0.4"/>
  </g>

  <!-- Subtle label -->
  <text x="360" y="394" text-anchor="middle" fill="#484f58" font-family="-apple-system, BlinkMacSystemFont, 'Segoe UI', sans-serif" font-size="10" letter-spacing="3">COGNITIVE FABRIC INTERCONNECT</text>
</svg>